# xmcd
#
# Track frame offsets:
#	150
#	15433
#	28495
#	43550
#	58407
#	68747
#	84785
#	98768
#	112840
#	129310
#	144180
#	158865
#	172288
#	188510
#	199883
#	216485
#	230673
#	242275
#	255063
#	267795
#
# Disc length: 3745 seconds
#
# Revision: 0
# Processed by: cddbd v1.5.2PL0 Copyright (c) Steve Scherf et al.
# Submitted via: EasyCDDAExtractor 16.0.9.1
#
DISCID=090e9f14
DTITLE=Mococa and Paraíso - Deus Não Dorme
DYEAR=2013
DGENRE=Sertanejo
TTITLE0=Pedreiros De Deus
TTITLE1=Aquela Parede
TTITLE2=Agora É Adeus
TTITLE3=Deus Não Dorme
TTITLE4=Chico Xavier
TTITLE5=O Taxista Apaixonado
TTITLE6=Viola De Carne
TTITLE7=A Boa
TTITLE8=Quem Ama Sempre Perdoa
TTITLE9=É Por Isso Que Eu Bebo
TTITLE10=De Lá Pra Cá
TTITLE11=Mulher Madura
TTITLE12=Paulistinha
TTITLE13=Sertanejão Relax
TTITLE14=Lição De Vida
TTITLE15=Claro Que É Amor
TTITLE16=Serra Gaúcha
TTITLE17=Por Um Fio
TTITLE18=Deusa Da Rua Augusta
TTITLE19=Pote Da Roça
EXTD=
EXTT0=
EXTT1=
EXTT2=
EXTT3=
EXTT4=
EXTT5=
EXTT6=
EXTT7=
EXTT8=
EXTT9=
EXTT10=
EXTT11=
EXTT12=
EXTT13=
EXTT14=
EXTT15=
EXTT16=
EXTT17=
EXTT18=
EXTT19=
PLAYORDER=
